<svg xmlns="http://www.w3.org/2000/svg" viewBox="0 0 1200 675" role="img" aria-label="Agile Robots and Google DeepMind partnership cover">
  <defs>
    <linearGradient id="bg" x1="0" y1="0" x2="1" y2="1">
      <stop offset="0%" stop-color="#07111b"/>
      <stop offset="54%" stop-color="#1c2f49"/>
      <stop offset="100%" stop-color="#24523f"/>
    </linearGradient>
  </defs>
  <rect width="1200" height="675" fill="url(#bg)"/>
  <circle cx="1032" cy="102" r="174" fill="#5de2a5" opacity=".16"/>
  <circle cx="140" cy="578" r="222" fill="#78a5ff" opacity=".16"/>
  <rect x="84" y="74" width="1036" height="526" rx="34" fill="#0c1725" fill-opacity=".84" stroke="#5e7ca4" stroke-opacity=".42"/>
  <g transform="translate(124 118)">
    <text x="0" y="0" fill="#9db7db" font-family="Arial, sans-serif" font-size="24" font-weight="700" letter-spacing="3">AI + ROBOTICS PARTNERSHIP</text>
    <text x="0" y="72" fill="#ffffff" font-family="Arial, sans-serif" font-size="50" font-weight="800">Agile Robots Partners With</text>
    <text x="0" y="128" fill="#ffffff" font-family="Arial, sans-serif" font-size="50" font-weight="800">Google DeepMind</text>
    <text x="0" y="182" fill="#b0c6de" font-family="Arial, sans-serif" font-size="26">Foundation-model talent meets commercial robotics execution</text>
  </g>
  <g transform="translate(152 314)">
    <rect x="0" y="0" width="300" height="212" rx="28" fill="#122438"/>
    <rect x="94" y="34" width="112" height="132" rx="24" fill="#dce8ff"/>
    <rect x="118" y="66" width="64" height="40" rx="14" fill="#102337"/>
    <circle cx="138" cy="86" r="8" fill="#76a5ff"/>
    <circle cx="162" cy="86" r="8" fill="#76a5ff"/>
    <path d="M126 184h48M150 184v70M66 212h34M200 212h34" stroke="#dce8ff" stroke-width="14" stroke-linecap="round"/>
  </g>
  <g transform="translate(484 364)">
    <circle cx="0" cy="0" r="22" fill="#68f0b6"/>
    <circle cx="88" cy="-48" r="18" fill="#79a7ff"/>
    <circle cx="184" cy="-8" r="22" fill="#68f0b6"/>
    <circle cx="290" cy="-56" r="18" fill="#79a7ff"/>
    <path d="M0 0 88-48 184-8 290-56" stroke="#e7f1ff" stroke-width="12" stroke-linecap="round" fill="none"/>
  </g>
  <g transform="translate(828 314)">
    <rect x="0" y="0" width="244" height="212" rx="28" fill="#122438"/>
    <circle cx="72" cy="86" r="42" fill="none" stroke="#dce8ff" stroke-width="14"/>
    <circle cx="72" cy="86" r="14" fill="#68f0b6"/>
    <path d="M136 62h66M136 98h74M136 134h54" stroke="#93add0" stroke-width="12" stroke-linecap="round"/>
    <text x="26" y="184" fill="#9dc0df" font-family="Arial, sans-serif" font-size="22" font-weight="700">MODEL + ROBOT STACK</text>
  </g>
</svg>
