<svg xmlns="http://www.w3.org/2000/svg" viewBox="0 0 1200 675" role="img" aria-label="Robotics and AI partnership cover">
  <defs>
    <linearGradient id="bg" x1="0" y1="0" x2="1" y2="1">
      <stop offset="0%" stop-color="#08111a"/>
      <stop offset="52%" stop-color="#1b2f49"/>
      <stop offset="100%" stop-color="#25503d"/>
    </linearGradient>
  </defs>
  <rect width="1200" height="675" fill="url(#bg)"/>
  <circle cx="1022" cy="98" r="172" fill="#67d9a4" opacity=".16"/>
  <circle cx="138" cy="586" r="214" fill="#7ea8ff" opacity=".17"/>
  <g transform="translate(150 122)">
    <rect x="0" y="0" width="900" height="430" rx="32" fill="#0e1826" stroke="#547196" stroke-opacity=".55"/>
    <g transform="translate(108 92)">
      <circle cx="112" cy="112" r="92" fill="none" stroke="#dbe8ff" stroke-width="18"/>
      <path d="M112 20v184M20 112h184" stroke="#dbe8ff" stroke-width="18" stroke-linecap="round"/>
      <circle cx="112" cy="112" r="30" fill="#74a2ff"/>
    </g>
    <g transform="translate(612 114)">
      <rect x="0" y="0" width="120" height="154" rx="24" fill="#dff7ff"/>
      <rect x="24" y="34" width="72" height="42" rx="14" fill="#10253a"/>
      <circle cx="46" cy="55" r="8" fill="#64d4ff"/>
      <circle cx="74" cy="55" r="8" fill="#64d4ff"/>
      <path d="M38 108h44M60 108v78M8 160h30M82 160h30" stroke="#dff7ff" stroke-width="16" stroke-linecap="round"/>
    </g>
    <path d="M396 216c54-30 116-30 170 0" stroke="#6fefb4" stroke-width="14" stroke-linecap="round" fill="none"/>
    <path d="M404 266c48 20 104 20 154 0" stroke="#6fefb4" stroke-width="14" stroke-linecap="round" fill="none"/>
    <circle cx="468" cy="242" r="12" fill="#6fefb4"/>
    <circle cx="496" cy="242" r="12" fill="#6fefb4"/>
  </g>
</svg>
