<svg xmlns="http://www.w3.org/2000/svg" viewBox="0 0 1200 675" role="img" aria-label="Kid-size humanoid robots cover">
  <defs>
    <linearGradient id="bg" x1="0" y1="0" x2="1" y2="1">
      <stop offset="0%" stop-color="#0a1119"/>
      <stop offset="50%" stop-color="#1d2f4a"/>
      <stop offset="100%" stop-color="#7a4f12"/>
    </linearGradient>
  </defs>
  <rect width="1200" height="675" fill="url(#bg)"/>
  <circle cx="1040" cy="118" r="182" fill="#ffb84a" opacity=".18"/>
  <circle cx="154" cy="574" r="210" fill="#83a9ff" opacity=".17"/>
  <rect x="180" y="130" width="840" height="406" rx="30" fill="#101b29" stroke="#536989" stroke-opacity=".55"/>
  <g transform="translate(284 154)">
    <rect x="0" y="0" width="282" height="330" rx="28" fill="#152537"/>
    <path d="M44 56h194M44 118h194M44 180h194M44 242h132" stroke="#6e89ad" stroke-width="16" stroke-linecap="round" opacity=".55"/>
    <path d="M188 284c34-10 68-18 102-22" stroke="#ffb84a" stroke-width="14" stroke-linecap="round" fill="none"/>
  </g>
  <g transform="translate(720 168)">
    <circle cx="92" cy="70" r="58" fill="#dfeaff"/>
    <rect x="38" y="138" width="108" height="170" rx="34" fill="#dfeaff"/>
    <circle cx="72" cy="70" r="10" fill="#112336"/>
    <circle cx="112" cy="70" r="10" fill="#112336"/>
    <path d="M72 204h40M92 204v126M16 224h32M136 224h32" stroke="#dfeaff" stroke-width="18" stroke-linecap="round"/>
  </g>
  <path d="M792 574c88 34 180 30 260-4" stroke="#ffb84a" stroke-width="14" stroke-linecap="round" fill="none"/>
</svg>
