<svg xmlns="http://www.w3.org/2000/svg" viewBox="0 0 1200 675" role="img" aria-label="Amazon humanoid robotics acquisition cover">
  <defs>
    <linearGradient id="bg" x1="0" y1="0" x2="1" y2="1">
      <stop offset="0%" stop-color="#08111a"/>
      <stop offset="54%" stop-color="#1a2d49"/>
      <stop offset="100%" stop-color="#885917"/>
    </linearGradient>
  </defs>
  <rect width="1200" height="675" fill="url(#bg)"/>
  <circle cx="1032" cy="98" r="176" fill="#ffbf54" opacity=".18"/>
  <circle cx="138" cy="578" r="220" fill="#769eff" opacity=".18"/>
  <rect x="84" y="74" width="1036" height="526" rx="34" fill="#0c1725" fill-opacity=".84" stroke="#627ea7" stroke-opacity=".42"/>
  <g transform="translate(124 118)">
    <text x="0" y="0" fill="#c4b187" font-family="Arial, sans-serif" font-size="24" font-weight="700" letter-spacing="3">ACQUISITION WATCH</text>
    <text x="0" y="72" fill="#ffffff" font-family="Arial, sans-serif" font-size="52" font-weight="800">Amazon Buys Startup</text>
    <text x="0" y="128" fill="#ffffff" font-family="Arial, sans-serif" font-size="52" font-weight="800">Building Kid-Size Humanoids</text>
    <text x="0" y="182" fill="#ccbfa2" font-family="Arial, sans-serif" font-size="26">Small-form humanoids, warehouse bets, and acquisition strategy</text>
  </g>
  <g transform="translate(128 296)">
    <rect x="0" y="0" width="326" height="232" rx="28" fill="#122336"/>
    <path d="M44 54h238M44 112h238M44 170h138" stroke="#7d96bc" stroke-width="16" stroke-linecap="round"/>
    <path d="M96 208c46 18 92 18 138 0" stroke="#ffbf54" stroke-width="12" stroke-linecap="round" fill="none"/>
  </g>
  <g transform="translate(570 248)">
    <circle cx="110" cy="64" r="56" fill="#dfeaff"/>
    <rect x="58" y="132" width="104" height="164" rx="34" fill="#dfeaff"/>
    <circle cx="90" cy="64" r="10" fill="#102337"/>
    <circle cx="128" cy="64" r="10" fill="#102337"/>
    <path d="M90 198h40M110 198v110M38 226h36M146 226h36" stroke="#dfeaff" stroke-width="16" stroke-linecap="round"/>
  </g>
  <g transform="translate(838 320)">
    <rect x="0" y="0" width="228" height="180" rx="24" fill="#132438"/>
    <text x="34" y="64" fill="#ffffff" font-family="Arial, sans-serif" font-size="34" font-weight="800">M&amp;A</text>
    <path d="M36 96h144" stroke="#ffbf54" stroke-width="14" stroke-linecap="round"/>
    <path d="M134 64l46 32-46 32" fill="none" stroke="#ffbf54" stroke-width="14" stroke-linecap="round" stroke-linejoin="round"/>
    <text x="34" y="144" fill="#b8c9e2" font-family="Arial, sans-serif" font-size="22">Humanoid platform bet</text>
  </g>
</svg>
