<svg xmlns="http://www.w3.org/2000/svg" viewBox="0 0 1200 675" role="img" aria-label="Latest generation of robots cover">
  <defs>
    <linearGradient id="bg" x1="0" y1="0" x2="1" y2="1">
      <stop offset="0%" stop-color="#070f19"/>
      <stop offset="48%" stop-color="#1b2c4d"/>
      <stop offset="100%" stop-color="#5b2133"/>
    </linearGradient>
  </defs>
  <rect width="1200" height="675" fill="url(#bg)"/>
  <circle cx="1020" cy="92" r="150" fill="#ef5177" opacity=".2"/>
  <circle cx="128" cy="574" r="216" fill="#6e94ff" opacity=".2"/>
  <g transform="translate(210 148)">
    <rect x="0" y="0" width="195" height="310" rx="28" fill="#dce7ff"/>
    <rect x="42" y="56" width="110" height="70" rx="18" fill="#0d1830"/>
    <circle cx="74" cy="91" r="13" fill="#82b2ff"/>
    <circle cx="120" cy="91" r="13" fill="#82b2ff"/>
    <path d="M52 168h90M98 168v112M16 290h62M118 290h62" stroke="#dce7ff" stroke-width="20" stroke-linecap="round"/>
  </g>
  <g transform="translate(506 96)">
    <rect x="0" y="24" width="190" height="338" rx="30" fill="#d7f4ff"/>
    <rect x="38" y="72" width="114" height="74" rx="18" fill="#0b2030"/>
    <circle cx="74" cy="109" r="12" fill="#65d1ff"/>
    <circle cx="116" cy="109" r="12" fill="#65d1ff"/>
    <path d="M54 190h82M95 190v128M14 332h66M110 332h66" stroke="#d7f4ff" stroke-width="20" stroke-linecap="round"/>
    <circle cx="176" cy="14" r="14" fill="#65d1ff"/>
  </g>
  <g transform="translate(802 175)">
    <path d="M0 208h188l-34-116H34z" fill="#cbdcff"/>
    <path d="M36 92h114l-18-74H54z" fill="#dbeaff"/>
    <circle cx="94" cy="0" r="28" fill="#dbeaff"/>
    <rect x="78" y="208" width="32" height="116" rx="16" fill="#dbeaff"/>
    <path d="M-10 314h70M128 314h70" stroke="#dbeaff" stroke-width="18" stroke-linecap="round"/>
  </g>
</svg>
