<svg xmlns="http://www.w3.org/2000/svg" viewBox="0 0 1200 675" role="img" aria-label="Latest generation of robots cover">
  <defs>
    <linearGradient id="bg" x1="0" y1="0" x2="1" y2="1">
      <stop offset="0%" stop-color="#081019"/>
      <stop offset="54%" stop-color="#1d2f4b"/>
      <stop offset="100%" stop-color="#5d2434"/>
    </linearGradient>
  </defs>
  <rect width="1200" height="675" fill="url(#bg)"/>
  <circle cx="1028" cy="102" r="168" fill="#f05f77" opacity=".16"/>
  <circle cx="130" cy="574" r="220" fill="#6f98ff" opacity=".18"/>
  <rect x="88" y="76" width="1020" height="522" rx="34" fill="#0d1726" fill-opacity=".86" stroke="#5d789f" stroke-opacity=".42"/>
  <g transform="translate(124 118)">
    <text x="0" y="0" fill="#97b1d8" font-family="Arial, sans-serif" font-size="24" font-weight="700" letter-spacing="3">SPECIAL REPORT</text>
    <text x="0" y="72" fill="#ffffff" font-family="Arial, sans-serif" font-size="54" font-weight="800">Meet The Machines</text>
    <text x="0" y="130" fill="#ffffff" font-family="Arial, sans-serif" font-size="54" font-weight="800">The Latest Generation Of Robots</text>
    <text x="0" y="182" fill="#a9bbd8" font-family="Arial, sans-serif" font-size="26">Humanoids, service bots, and industrial systems entering the market</text>
  </g>
  <g transform="translate(132 284)">
    <rect x="0" y="0" width="264" height="242" rx="28" fill="#122235"/>
    <rect x="84" y="22" width="96" height="126" rx="24" fill="#dce8ff"/>
    <rect x="104" y="54" width="56" height="34" rx="12" fill="#102236"/>
    <circle cx="120" cy="72" r="7" fill="#72a2ff"/>
    <circle cx="144" cy="72" r="7" fill="#72a2ff"/>
    <path d="M112 162h40M132 162v84M56 204h42M166 204h42" stroke="#dce8ff" stroke-width="14" stroke-linecap="round"/>
    <text x="28" y="214" fill="#89a6d1" font-family="Arial, sans-serif" font-size="22" font-weight="700">HUMANOID</text>
  </g>
  <g transform="translate(468 284)">
    <rect x="0" y="0" width="264" height="242" rx="28" fill="#122235"/>
    <circle cx="132" cy="58" r="42" fill="#dff7ff"/>
    <path d="M58 144h148l-18 58H76z" fill="#dff7ff"/>
    <circle cx="88" cy="216" r="18" fill="#dff7ff"/>
    <circle cx="176" cy="216" r="18" fill="#dff7ff"/>
    <text x="28" y="214" fill="#89a6d1" font-family="Arial, sans-serif" font-size="22" font-weight="700">INDUSTRIAL</text>
  </g>
  <g transform="translate(804 284)">
    <rect x="0" y="0" width="264" height="242" rx="28" fill="#122235"/>
    <circle cx="76" cy="76" r="28" fill="#dff2ff"/>
    <rect x="110" y="40" width="74" height="112" rx="22" fill="#dff2ff"/>
    <path d="M128 176h122" stroke="#67d8ff" stroke-width="14" stroke-linecap="round"/>
    <path d="M128 210h88" stroke="#67d8ff" stroke-width="14" stroke-linecap="round"/>
    <text x="28" y="214" fill="#89a6d1" font-family="Arial, sans-serif" font-size="22" font-weight="700">SERVICE</text>
  </g>
</svg>
