<svg xmlns="http://www.w3.org/2000/svg" viewBox="0 0 1200 675" role="img" aria-label="Lucid Bots window washing drone cover">
  <defs>
    <linearGradient id="bg" x1="0" y1="0" x2="1" y2="1">
      <stop offset="0%" stop-color="#05131c"/>
      <stop offset="58%" stop-color="#14334b"/>
      <stop offset="100%" stop-color="#15615f"/>
    </linearGradient>
  </defs>
  <rect width="1200" height="675" fill="url(#bg)"/>
  <circle cx="1032" cy="100" r="176" fill="#7de4ff" opacity=".15"/>
  <circle cx="138" cy="576" r="220" fill="#5be0bf" opacity=".16"/>
  <rect x="84" y="74" width="1036" height="526" rx="34" fill="#0b1623" fill-opacity=".82" stroke="#5f89ae" stroke-opacity=".42"/>
  <g transform="translate(122 118)">
    <text x="0" y="0" fill="#90c5df" font-family="Arial, sans-serif" font-size="24" font-weight="700" letter-spacing="3">COMMERCIAL DRONES</text>
    <text x="0" y="72" fill="#ffffff" font-family="Arial, sans-serif" font-size="54" font-weight="800">Lucid Bots Raises $20M</text>
    <text x="0" y="130" fill="#ffffff" font-family="Arial, sans-serif" font-size="54" font-weight="800">For Window-Washing Drones</text>
    <text x="0" y="182" fill="#abd0de" font-family="Arial, sans-serif" font-size="26">Funding, field demand, and building-maintenance automation</text>
  </g>
  <g transform="translate(120 238)">
    <rect x="0" y="0" width="356" height="304" rx="26" fill="#102337" stroke="#6ba9ca" stroke-opacity=".45"/>
    <path d="M89 0v304M178 0v304M267 0v304M0 101h356M0 202h356" stroke="#6ba9ca" stroke-opacity=".35"/>
    <path d="M44 46h268v212H44z" fill="#92d9ff" opacity=".18"/>
  </g>
  <g transform="translate(520 330)">
    <circle cx="88" cy="58" r="44" fill="#e3f8ff"/>
    <circle cx="88" cy="58" r="16" fill="#0d1f31"/>
    <path d="M8 58h160M88 -22v160" stroke="#e3f8ff" stroke-width="16" stroke-linecap="round"/>
    <circle cx="0" cy="50" r="18" fill="#e3f8ff"/>
    <circle cx="176" cy="50" r="18" fill="#e3f8ff"/>
    <circle cx="80" cy="-32" r="18" fill="#e3f8ff"/>
    <circle cx="80" cy="150" r="18" fill="#e3f8ff"/>
    <path d="M84 102c-44 18-80 72-92 166" stroke="#67efcf" stroke-width="14" stroke-linecap="round" fill="none"/>
  </g>
  <g transform="translate(835 268)">
    <rect x="0" y="0" width="234" height="228" rx="28" fill="#132638" stroke="#6ba9ca" stroke-opacity=".45"/>
    <text x="28" y="62" fill="#ffffff" font-family="Arial, sans-serif" font-size="34" font-weight="800">$20M</text>
    <text x="28" y="106" fill="#9ec8db" font-family="Arial, sans-serif" font-size="22">Growth Capital</text>
    <path d="M32 146h166" stroke="#67efcf" stroke-width="12" stroke-linecap="round"/>
    <path d="M150 118l48 28-48 28" fill="none" stroke="#67efcf" stroke-width="12" stroke-linecap="round" stroke-linejoin="round"/>
  </g>
</svg>
