<svg xmlns="http://www.w3.org/2000/svg" viewBox="0 0 1200 675" role="img" aria-label="Window washing drones cover">
  <defs>
    <linearGradient id="bg" x1="0" y1="0" x2="1" y2="1">
      <stop offset="0%" stop-color="#05141e"/>
      <stop offset="50%" stop-color="#103246"/>
      <stop offset="100%" stop-color="#1b5a62"/>
    </linearGradient>
    <linearGradient id="glass" x1="0" y1="0" x2="0" y2="1">
      <stop offset="0%" stop-color="#9ad7ff" stop-opacity=".44"/>
      <stop offset="100%" stop-color="#d7efff" stop-opacity=".08"/>
    </linearGradient>
  </defs>
  <rect width="1200" height="675" fill="url(#bg)"/>
  <circle cx="1015" cy="120" r="180" fill="#8ad3ff" opacity=".15"/>
  <circle cx="170" cy="590" r="220" fill="#53d0bf" opacity=".14"/>
  <g opacity=".2">
    <rect x="240" y="82" width="720" height="510" rx="24" fill="#0f2130" stroke="#7ab6d9" stroke-opacity=".55"/>
    <path d="M420 82v510M600 82v510M780 82v510M240 252h720M240 422h720" stroke="#7ab6d9" stroke-opacity=".45"/>
    <rect x="258" y="102" width="684" height="470" rx="18" fill="url(#glass)"/>
  </g>
  <g transform="translate(640 214)">
    <circle cx="0" cy="0" r="48" fill="#dff6ff"/>
    <circle cx="0" cy="0" r="24" fill="#0e2234"/>
    <path d="M-88 0H88M0-88V88" stroke="#dff6ff" stroke-width="16" stroke-linecap="round"/>
    <circle cx="-98" cy="-6" r="18" fill="#dff6ff"/>
    <circle cx="98" cy="-6" r="18" fill="#dff6ff"/>
    <circle cx="-6" cy="-98" r="18" fill="#dff6ff"/>
    <circle cx="-6" cy="98" r="18" fill="#dff6ff"/>
    <path d="M0 56c-72 34-108 88-118 164" stroke="#79f0db" stroke-width="14" stroke-linecap="round" fill="none"/>
  </g>
  <g transform="translate(355 250)">
    <rect x="0" y="0" width="120" height="168" rx="26" fill="#d6eeff"/>
    <circle cx="42" cy="50" r="10" fill="#0f2334"/>
    <circle cx="78" cy="50" r="10" fill="#0f2334"/>
    <path d="M35 94h50" stroke="#0f2334" stroke-width="10" stroke-linecap="round"/>
    <path d="M60 170v92" stroke="#d6eeff" stroke-width="18" stroke-linecap="round"/>
    <path d="M0 220h120" stroke="#d6eeff" stroke-width="18" stroke-linecap="round"/>
  </g>
</svg>
