<svg xmlns="http://www.w3.org/2000/svg" viewBox="0 0 1200 675" role="img" aria-label="OpenAI strategy shift cover">
  <defs>
    <linearGradient id="bg" x1="0" y1="0" x2="1" y2="1">
      <stop offset="0%" stop-color="#07101a"/>
      <stop offset="54%" stop-color="#1a2b48"/>
      <stop offset="100%" stop-color="#61253e"/>
    </linearGradient>
  </defs>
  <rect width="1200" height="675" fill="url(#bg)"/>
  <circle cx="1026" cy="100" r="174" fill="#e4567f" opacity=".16"/>
  <circle cx="136" cy="578" r="224" fill="#76a4ff" opacity=".16"/>
  <rect x="84" y="74" width="1036" height="526" rx="34" fill="#0c1725" fill-opacity=".84" stroke="#607da7" stroke-opacity=".42"/>
  <g transform="translate(124 118)">
    <text x="0" y="0" fill="#9eb6dd" font-family="Arial, sans-serif" font-size="24" font-weight="700" letter-spacing="3">AI PRODUCT STRATEGY</text>
    <text x="0" y="72" fill="#ffffff" font-family="Arial, sans-serif" font-size="52" font-weight="800">OpenAI Scraps Sora App</text>
    <text x="0" y="128" fill="#ffffff" font-family="Arial, sans-serif" font-size="52" font-weight="800">To Chase Bigger AI Goals</text>
    <text x="0" y="182" fill="#b4c2dc" font-family="Arial, sans-serif" font-size="26">Product reset, platform focus, and shifting AI priorities</text>
  </g>
  <g transform="translate(130 304)">
    <rect x="0" y="0" width="350" height="214" rx="28" fill="#132437"/>
    <rect x="34" y="36" width="120" height="142" rx="20" fill="#dce8ff"/>
    <rect x="196" y="36" width="120" height="142" rx="20" fill="#dce8ff"/>
    <path d="M92 94h4M242 94h4" stroke="#102337" stroke-width="18" stroke-linecap="round"/>
    <path d="M48 196h252" stroke="#7d95bc" stroke-width="14" stroke-linecap="round"/>
    <path d="M214 58l86 98" stroke="#e4567f" stroke-width="16" stroke-linecap="round"/>
  </g>
  <g transform="translate(584 298)">
    <circle cx="120" cy="106" r="92" fill="none" stroke="#dce8ff" stroke-width="18"/>
    <circle cx="120" cy="106" r="28" fill="#77a5ff"/>
    <path d="M120 14v184M28 106h184M52 42l136 128M52 170 188 42" stroke="#dce8ff" stroke-width="14" stroke-linecap="round"/>
  </g>
  <g transform="translate(884 320)">
    <rect x="0" y="0" width="184" height="180" rx="24" fill="#132437"/>
    <text x="28" y="68" fill="#ffffff" font-family="Arial, sans-serif" font-size="30" font-weight="800">RESET</text>
    <path d="M30 102h112" stroke="#77e2ff" stroke-width="14" stroke-linecap="round"/>
    <path d="M86 72l56 30-56 30" fill="none" stroke="#77e2ff" stroke-width="14" stroke-linecap="round" stroke-linejoin="round"/>
    <text x="28" y="146" fill="#b7c8df" font-family="Arial, sans-serif" font-size="20">Broader AI push</text>
  </g>
</svg>
