<svg xmlns="http://www.w3.org/2000/svg" viewBox="0 0 1200 675" role="img" aria-label="Retail logistics robots cover">
  <defs>
    <linearGradient id="bg" x1="0" y1="0" x2="1" y2="1">
      <stop offset="0%" stop-color="#07131d"/>
      <stop offset="56%" stop-color="#16324b"/>
      <stop offset="100%" stop-color="#1c5a45"/>
    </linearGradient>
  </defs>
  <rect width="1200" height="675" fill="url(#bg)"/>
  <circle cx="1030" cy="104" r="174" fill="#6bc5ff" opacity=".16"/>
  <circle cx="144" cy="578" r="224" fill="#62ebb6" opacity=".16"/>
  <rect x="82" y="74" width="1036" height="524" rx="34" fill="#0b1624" fill-opacity=".84" stroke="#5d80a8" stroke-opacity=".42"/>
  <g transform="translate(124 118)">
    <text x="0" y="0" fill="#97b7db" font-family="Arial, sans-serif" font-size="24" font-weight="700" letter-spacing="3">RETAIL AUTOMATION</text>
    <text x="0" y="72" fill="#ffffff" font-family="Arial, sans-serif" font-size="52" font-weight="800">No Arms, No Legs, No Problem</text>
    <text x="0" y="128" fill="#ffffff" font-family="Arial, sans-serif" font-size="52" font-weight="800">Robots Take Over Retail Logistics</text>
    <text x="0" y="182" fill="#afc4de" font-family="Arial, sans-serif" font-size="26">Mobile platforms, fulfillment flow, and store-to-warehouse automation</text>
  </g>
  <g opacity=".22" stroke="#85abd9">
    <path d="M124 322h952M124 430h952M124 538h952"/>
  </g>
  <g transform="translate(148 318)">
    <rect x="0" y="0" width="214" height="190" rx="24" fill="#132438"/>
    <path d="M28 44h158M28 82h158M28 120h158" stroke="#7d98be" stroke-width="14" stroke-linecap="round"/>
    <path d="M28 158h98" stroke="#7d98be" stroke-width="14" stroke-linecap="round"/>
  </g>
  <g transform="translate(450 350)">
    <rect x="0" y="84" width="228" height="84" rx="28" fill="#dbe8ff"/>
    <rect x="44" y="34" width="140" height="82" rx="22" fill="#c2d5ff"/>
    <circle cx="58" cy="182" r="20" fill="#dbe8ff"/>
    <circle cx="170" cy="182" r="20" fill="#dbe8ff"/>
    <path d="M62 74h102" stroke="#102337" stroke-width="12" stroke-linecap="round"/>
  </g>
  <g transform="translate(796 312)">
    <rect x="0" y="0" width="220" height="196" rx="24" fill="#132438"/>
    <path d="M36 42h148M36 80h148M36 118h148M36 156h84" stroke="#7d98be" stroke-width="14" stroke-linecap="round"/>
    <g transform="translate(110 88)">
      <rect x="-54" y="52" width="108" height="52" rx="18" fill="#6df0bb"/>
      <path d="M-20 78h40" stroke="#102337" stroke-width="10" stroke-linecap="round"/>
      <path d="M-42 116h84" stroke="#6df0bb" stroke-width="12" stroke-linecap="round"/>
    </g>
  </g>
</svg>
