<svg xmlns="http://www.w3.org/2000/svg" viewBox="0 0 1200 675" role="img" aria-label="U.S. lawmakers robotics policy cover">
  <defs>
    <linearGradient id="bg" x1="0" y1="0" x2="1" y2="1">
      <stop offset="0%" stop-color="#08111d"/>
      <stop offset="55%" stop-color="#102844"/>
      <stop offset="100%" stop-color="#571d28"/>
    </linearGradient>
    <linearGradient id="panel" x1="0" y1="0" x2="0" y2="1">
      <stop offset="0%" stop-color="#11253f" stop-opacity=".96"/>
      <stop offset="100%" stop-color="#0a1321" stop-opacity=".96"/>
    </linearGradient>
  </defs>
  <rect width="1200" height="675" fill="url(#bg)"/>
  <circle cx="1035" cy="95" r="170" fill="#e84a5f" opacity=".18"/>
  <circle cx="140" cy="570" r="220" fill="#6f9dff" opacity=".18"/>
  <g opacity=".12" stroke="#84a8df">
    <path d="M0 126h1200M0 252h1200M0 378h1200M0 504h1200"/>
    <path d="M120 0v675M240 0v675M360 0v675M480 0v675M600 0v675M720 0v675M840 0v675M960 0v675M1080 0v675"/>
  </g>
  <rect x="74" y="66" width="1052" height="543" rx="34" fill="url(#panel)" stroke="#607ca6" stroke-opacity=".45"/>
  <g transform="translate(115 104)">
    <text x="0" y="0" fill="#9eb7df" font-family="Arial, sans-serif" font-size="24" font-weight="700" letter-spacing="3">WASHINGTON ROBOTICS POLICY</text>
    <text x="0" y="72" fill="#ffffff" font-family="Arial, sans-serif" font-size="54" font-weight="800">U.S. Lawmakers Move</text>
    <text x="0" y="132" fill="#ffffff" font-family="Arial, sans-serif" font-size="54" font-weight="800">To Ban Chinese Robots</text>
    <text x="0" y="186" fill="#a9bddc" font-family="Arial, sans-serif" font-size="26">Procurement restrictions, national security, and public-sector robotics</text>
  </g>
  <g transform="translate(108 340)">
    <path d="M30 140h392l-38-120H68z" fill="#d7e5ff"/>
    <path d="M84 20h284l-34-54H118z" fill="#d7e5ff"/>
    <path d="M152 -34h146l-12-34h-122z" fill="#d7e5ff"/>
    <path d="M226 -68v210" stroke="#d7e5ff" stroke-width="16" stroke-linecap="round"/>
  </g>
  <g transform="translate(695 282)">
    <rect x="0" y="0" width="174" height="220" rx="28" fill="#dbe8ff"/>
    <rect x="34" y="38" width="104" height="58" rx="18" fill="#101b2c"/>
    <circle cx="66" cy="66" r="11" fill="#76a2ff"/>
    <circle cx="108" cy="66" r="11" fill="#76a2ff"/>
    <path d="M52 138h70M87 138v116M18 184h42M114 184h42" stroke="#dbe8ff" stroke-width="18" stroke-linecap="round"/>
  </g>
  <g transform="translate(912 272)">
    <circle cx="86" cy="86" r="84" fill="#f1f5ff"/>
    <path d="M86 26v120M26 86h120" stroke="#d63d51" stroke-width="18" stroke-linecap="round"/>
    <circle cx="86" cy="86" r="70" fill="none" stroke="#d63d51" stroke-width="10"/>
  </g>
</svg>
