<svg xmlns="http://www.w3.org/2000/svg" viewBox="0 0 1200 675" role="img" aria-label="Robotics policy cover">
  <defs>
    <linearGradient id="bg" x1="0" y1="0" x2="1" y2="1">
      <stop offset="0%" stop-color="#081424"/>
      <stop offset="55%" stop-color="#102743"/>
      <stop offset="100%" stop-color="#4d1e24"/>
    </linearGradient>
    <linearGradient id="panel" x1="0" y1="0" x2="1" y2="1">
      <stop offset="0%" stop-color="#162d4d" stop-opacity=".92"/>
      <stop offset="100%" stop-color="#0a1524" stop-opacity=".92"/>
    </linearGradient>
  </defs>
  <rect width="1200" height="675" fill="url(#bg)"/>
  <circle cx="1030" cy="110" r="170" fill="#c33d52" opacity=".18"/>
  <circle cx="150" cy="565" r="210" fill="#5d8cff" opacity=".18"/>
  <g opacity=".14" stroke="#8eb4ff">
    <path d="M0 120h1200M0 240h1200M0 360h1200M0 480h1200M0 600h1200"/>
    <path d="M120 0v675M240 0v675M360 0v675M480 0v675M600 0v675M720 0v675M840 0v675M960 0v675M1080 0v675"/>
  </g>
  <rect x="115" y="118" width="970" height="438" rx="28" fill="url(#panel)" stroke="#5d79ad" stroke-opacity=".55"/>
  <path d="M305 460h590l-42-150H347z" fill="#0f2236" stroke="#6b88bb" stroke-opacity=".7"/>
  <path d="M360 310h480l-36-126H396z" fill="#183654" stroke="#90b2e7" stroke-opacity=".55"/>
  <g fill="#dbe7ff">
    <rect x="472" y="216" width="16" height="102" rx="8"/>
    <rect x="520" y="184" width="16" height="134" rx="8"/>
    <rect x="568" y="154" width="16" height="164" rx="8"/>
    <rect x="616" y="184" width="16" height="134" rx="8"/>
    <rect x="664" y="216" width="16" height="102" rx="8"/>
  </g>
  <g transform="translate(742 248)">
    <rect x="0" y="0" width="92" height="120" rx="18" fill="#d9e5ff"/>
    <rect x="18" y="24" width="56" height="34" rx="12" fill="#0c1728"/>
    <circle cx="33" cy="41" r="8" fill="#71a4ff"/>
    <circle cx="59" cy="41" r="8" fill="#71a4ff"/>
    <path d="M28 86h36M46 86v38M8 126h28M56 126h28" stroke="#d9e5ff" stroke-width="14" stroke-linecap="round"/>
  </g>
  <rect x="170" y="145" width="230" height="24" rx="12" fill="#89a9dc" opacity=".3"/>
  <rect x="170" y="183" width="320" height="18" rx="9" fill="#89a9dc" opacity=".22"/>
</svg>
